<?xml version="1.0" encoding="utf-8"?>
<!-- Generator: Adobe Illustrator 22.1.0, SVG Export Plug-In . SVG Version: 6.00 Build 0)  -->
<svg version="1.1" id="Layer_1" xmlns="http://www.w3.org/2000/svg" xmlns:xlink="http://www.w3.org/1999/xlink" x="0px" y="0px"
	 viewBox="0 0 300 300" style="enable-background:new 0 0 300 300;" xml:space="preserve">
<style type="text/css">
	.st0{fill:#82889D;}
	.st1{fill:#D7DEED;}
	.st2{fill:#C7CFE2;}
	.st3{fill:#959CB3;}
	.st4{fill:#E4EAF6;}
	.st5{fill:#B8BFD4;}
	.st6{fill:#00D2FF;}
</style>
<g>
	<path class="st0" d="M175.5,176.4v-16.7h-50.2v16.7c0,6.9-5.6,12.5-12.5,12.5l0,0v30.3h75.3v-30.3l0,0
		C181.1,188.9,175.5,183.3,175.5,176.4z"/>
	<path class="st1" d="M103.2,135.1l0.3,4.8c0.5,7.2,3.8,13.8,9.2,18.2l16.2,13.3c4,3.3,8.8,5,13.8,5h15.4c5,0,9.8-1.8,13.8-5
		l16.2-13.3c5.3-4.3,8.6-10.9,9.2-18.2l0.3-4.8H103.2z"/>
	<g>
		<path class="st0" d="M50,221.2V263c0,4.6,3.7,8.4,8.4,8.4l25.1-3v-50.2L50,221.2z"/>
		<path class="st0" d="M217.3,218.2v50.2h25.1c4.6,0,8.4-3.7,8.4-8.4v-41.8H217.3z"/>
	</g>
	<path class="st2" d="M90.3,74.3l1.6,26.8H209l1.6-26.8c1.4-24-17.7-44.3-41.8-44.3H132C108,30,88.9,50.3,90.3,74.3z"/>
	<g>
		<path class="st3" d="M100.2,126.2l-4.6-2.3c-2.4-1.2-4.1-3.5-4.5-6.1l-2.6-15.5c-0.5-2.8,1.7-5.4,4.5-5.4h7.1L100.2,126.2
			L100.2,126.2z"/>
		<path class="st3" d="M200.6,126.2l4.6-2.3c2.4-1.2,4.1-3.5,4.5-6.1l2.6-15.5c0.5-2.8-1.7-5.4-4.5-5.4h-7.1L200.6,126.2
			L200.6,126.2z"/>
	</g>
	<path class="st4" d="M172.9,42.5h-3.1c-1.6,0-3,0.9-3.7,2.3l-1.9,3.7c-0.7,1.4-2.2,2.3-3.7,2.3h-19.9c-1.6,0-3-0.9-3.7-2.3
		l-1.9-3.7c-0.7-1.4-2.2-2.3-3.7-2.3H128c-19.5,0-34.9,16.6-33.4,36l3.9,50.3c0.3,3.7,3,6.8,6.7,7.6l8,1.6c2.4,0.5,4.7,1.7,6.4,3.4
		l6.2,6.2c2.4,2.4,5.5,3.7,8.9,3.7h31.4c3.3,0,6.5-1.3,8.9-3.7l6.2-6.2c1.8-1.8,4-2.9,6.4-3.4l8-1.6c3.7-0.7,6.4-3.8,6.7-7.6
		l3.9-50.3C207.7,59.1,192.3,42.5,172.9,42.5z"/>
	<path class="st1" d="M167.2,113.6l-3.4,23.9c-0.4,3.1-3.1,5.4-6.2,5.4h-14.2c-3.1,0-5.8-2.3-6.2-5.4l-3.4-23.9l4.2-12.5H163
		L167.2,113.6z"/>
	<path class="st2" d="M252.1,203.9L209,193.1h-20.9l-37.6,41.8l-37.6-41.8H91.9l-43.1,13.7c-4.1,1-7.1,4.8-7.1,9
		c0,3.3,1.7,6.3,4.5,8l31.2,15.8c3.8,2.3,6.1,6.4,6.1,10.8v18h66.9h66.9v-18c0-4.4,2.3-8.5,6.1-10.8l31.2-18.7
		c2.8-1.7,4.5-4.7,4.5-8C259.2,208.7,256.3,204.9,252.1,203.9z"/>
	<g>
		<path class="st1" d="M192.7,185.8l-22,6.3c-2.3,0.6-4.1,2.2-5.2,4.3l-8,15.9c-2.9,5.9-11.3,5.9-14.2,0l-8-15.9
			c-1-2.1-2.9-3.7-5.2-4.3l-22-6.3c-2.4-0.7-4.9-0.3-6.9,1.1l-9.3,6.2c0,0,12.5,33.5,58.6,46c46-12.5,58.6-46,58.6-46l-9.3-6.2
			C197.6,185.5,195.1,185.1,192.7,185.8z"/>
		<path class="st1" d="M108.6,109.5h9.3v-8.4h-9.3c-2.3,0-4.2,1.9-4.2,4.2l0,0C104.4,107.6,106.3,109.5,108.6,109.5z"/>
		<path class="st1" d="M192.3,101.1h-9.3v8.4h9.3c2.3,0,4.2-1.9,4.2-4.2l0,0C196.4,103,194.6,101.1,192.3,101.1z"/>
	</g>
	<path class="st5" d="M133.7,109.5h8.4c2.3,0,4.2,1.9,4.2,4.2v16.7c0,2.3,1.9,4.2,4.2,4.2l0,0c2.3,0,4.2-1.9,4.2-4.2v-16.7
		c0-2.3,1.9-4.2,4.2-4.2h8.4v-8.4h-33.5L133.7,109.5L133.7,109.5z"/>
	<g>
		<path class="st6" d="M136.8,117.1l-20.1-2.9c-2.3-0.3-4-2.3-4-4.6v-4c0-2.5,2.1-4.6,4.6-4.6h20.1c2.5,0,4.6,2.1,4.6,4.6v6.8
			C142.1,115.3,139.6,117.5,136.8,117.1z"/>
		<path class="st6" d="M164,117.1l20.1-2.9c2.3-0.3,4-2.3,4-4.6v-4c0-2.5-2.1-4.6-4.6-4.6h-20.1c-2.5,0-4.6,2.1-4.6,4.6v6.8
			C158.8,115.3,161.3,117.5,164,117.1z"/>
	</g>
	<path class="st2" d="M158.8,163.8h-16.7c-2.3,0-4.2-1.9-4.2-4.2l0,0c0-2.3,1.9-4.2,4.2-4.2h16.7c2.3,0,4.2,1.9,4.2,4.2l0,0
		C163,162,161.1,163.8,158.8,163.8z"/>
	<circle class="st1" cx="150.4" cy="239.1" r="16.7"/>
	<circle class="st6" cx="150.4" cy="239.1" r="8.4"/>
	<g>
		<path class="st5" d="M121.2,260L121.2,260c-2.3,0-4.2-1.9-4.2-4.2v-8.4c0-2.3,1.9-4.2,4.2-4.2l0,0c2.3,0,4.2,1.9,4.2,4.2v8.4
			C125.3,258.2,123.5,260,121.2,260z"/>
		<path class="st5" d="M104.4,260L104.4,260c-2.3,0-4.2-1.9-4.2-4.2v-8.4c0-2.3,1.9-4.2,4.2-4.2l0,0c2.3,0,4.2,1.9,4.2,4.2v8.4
			C108.6,258.2,106.7,260,104.4,260z"/>
		<path class="st5" d="M196.4,260L196.4,260c-2.3,0-4.2-1.9-4.2-4.2v-8.4c0-2.3,1.9-4.2,4.2-4.2l0,0c2.3,0,4.2,1.9,4.2,4.2v8.4
			C200.6,258.2,198.7,260,196.4,260z"/>
		<path class="st5" d="M179.7,260L179.7,260c-2.3,0-4.2-1.9-4.2-4.2v-8.4c0-2.3,1.9-4.2,4.2-4.2l0,0c2.3,0,4.2,1.9,4.2,4.2v8.4
			C183.9,258.2,182,260,179.7,260z"/>
		<path class="st5" d="M163,38.4h-25.1c-2.3,0-4.2-1.9-4.2-4.2V30h33.5v4.2C167.2,36.5,165.3,38.4,163,38.4z"/>
	</g>
</g>
</svg>
