<?xml version="1.0" encoding="iso-8859-1"?>
<!-- Generator: Adobe Illustrator 19.0.0, SVG Export Plug-In . SVG Version: 6.00 Build 0)  -->
<svg version="1.1" id="Layer_1" xmlns="http://www.w3.org/2000/svg" xmlns:xlink="http://www.w3.org/1999/xlink" x="0px" y="0px"
	 viewBox="0 0 512 512" style="enable-background:new 0 0 512 512;" xml:space="preserve">
<polygon style="fill:#D9D8D7;" points="325.719,501.573 186.243,501.573 198.907,430.469 313.016,430.469 "/>
<polygon style="fill:#CCCBCA;" points="325.719,501.573 313.016,430.469 198.907,430.469 290.148,501.573 "/>
<g>
	<path style="fill:#E6E5E5;" d="M363.049,512H148.905v-3.894c0-1.672,0.635-3.351,1.912-4.626c1.28-1.285,2.954-1.91,4.628-1.91
		h201.05c1.695,0,3.351,0.625,4.641,1.91c1.267,1.275,1.912,2.952,1.912,4.626V512z"/>
	<path style="fill:#E6E5E5;" d="M507.082,384.502v33.764c0,6.723-5.519,12.204-12.247,12.204H17.137
		c-6.684,0-12.219-5.481-12.219-12.204v-33.764H507.082z"/>
</g>
<path style="fill:#242D3C;" d="M507.082,384.502V63.895c0-6.702-5.512-12.229-12.25-12.229H17.129
	c-6.689,0-12.196,5.53-12.196,12.229v320.607H507.082z"/>
<rect x="30.252" y="77.03" style="fill:#FFFFFF;" width="451.405" height="282.086"/>
<rect x="49.226" y="311.27" style="fill:#21D8DE;" width="34.417" height="47.841"/>
<rect x="83.643" y="201.889" style="fill:#16C6CC;" width="34.381" height="157.235"/>
<rect x="118.016" y="245.632" style="fill:#06B2B8;" width="34.435" height="113.485"/>
<rect x="152.448" y="221.056" style="fill:#21D8DE;" width="34.401" height="138.061"/>
<rect x="186.857" y="302.362" style="fill:#16C6CC;" width="34.394" height="56.755"/>
<rect x="221.261" y="168.704" style="fill:#06B2B8;" width="34.417" height="190.413"/>
<rect x="255.667" y="234.291" style="fill:#21D8DE;" width="34.381" height="124.828"/>
<rect x="290.048" y="270.336" style="fill:#16C6CC;" width="34.414" height="88.786"/>
<rect x="324.454" y="188.877" style="fill:#06B2B8;" width="34.401" height="170.24"/>
<rect x="358.861" y="134.016" style="fill:#21D8DE;" width="34.406" height="225.075"/>
<rect x="393.267" y="109.458" style="fill:#16C6CC;" width="34.442" height="249.651"/>
<rect x="427.725" y="215.629" style="fill:#06B2B8;" width="34.394" height="143.488"/>
<g>
	<polygon style="fill:#242D3C;" points="52.557,365.635 49.226,359.114 70.362,348.37 91.461,307.912 112.266,306.903 
		132.782,276.065 153.492,272.709 174.991,244.877 198.82,254.886 220.321,277.414 235.743,255.45 259.453,249.234 278.866,263.964 
		297.887,244.877 317.77,238.843 338.258,194.701 362.506,181.217 384.699,208.474 401.897,218.245 422.231,191.314 
		443.479,198.925 463.196,182.746 485.519,179.878 486.459,187.131 466.214,189.747 444.923,207.209 424.837,200.036 
		403.891,227.773 379.881,214.162 360.719,190.597 343.9,199.926 323.026,244.897 301.77,251.343 279.516,273.664 257.864,257.211 
		240.202,261.844 221.179,288.932 194.586,261.043 177.341,253.811 157.519,279.485 137.103,282.772 116.316,314.017 
		96.013,315.018 75.75,353.838 	"/>
	<rect x="405.504" style="fill:#242D3C;" width="9.974" height="109.458"/>
</g>
<polygon style="fill:#F15424;" points="358.868,0 365.77,18.719 358.871,37.435 405.509,37.435 405.509,0 "/>
<rect x="163.917" y="119.882" style="fill:#06B2B8;" width="12.49" height="12.503"/>
<rect x="182.656" y="126.131" style="fill:#D9D8D7;" width="28.129" height="6.257"/>
<rect x="220.749" y="119.882" style="fill:#21D8DE;" width="12.503" height="12.503"/>
<rect x="239.488" y="126.131" style="fill:#D9D8D7;" width="28.145" height="6.257"/>
<rect x="277.581" y="119.882" style="fill:#16C6CC;" width="12.49" height="12.503"/>
<rect x="296.32" y="126.131" style="fill:#D9D8D7;" width="28.145" height="6.257"/>
<rect x="49.226" y="109.458" style="fill:#242D3C;" width="91.753" height="22.925"/>
<rect x="59.715" y="118.144" style="fill:#FFFFFF;" width="35.374" height="6.259"/>
<g>
	<rect x="49.226" y="138.65" style="fill:#D9D8D7;" width="91.753" height="6.236"/>
	<rect x="49.226" y="151.117" style="fill:#D9D8D7;" width="45.868" height="6.241"/>
</g>
<g>
</g>
<g>
</g>
<g>
</g>
<g>
</g>
<g>
</g>
<g>
</g>
<g>
</g>
<g>
</g>
<g>
</g>
<g>
</g>
<g>
</g>
<g>
</g>
<g>
</g>
<g>
</g>
<g>
</g>
</svg>
